<?xml version="1.0" standalone="no"?>
<!DOCTYPE svg PUBLIC "-//W3C//DTD SVG 20010904//EN"
 "http://www.w3.org/TR/2001/REC-SVG-20010904/DTD/svg10.dtd">
<svg version="1.0" xmlns="http://www.w3.org/2000/svg"
 width="60.000000pt" height="75.000000pt" viewBox="0 0 60.000000 75.000000"
 preserveAspectRatio="xMidYMid meet">

<g transform="translate(0.000000,75.000000) scale(0.100000,-0.100000)"
fill="#000000" stroke="none">
<path d="M249 593 c-8 -10 -25 -33 -38 -51 -21 -31 -22 -35 -7 -51 19 -20 14
-27 -41 -55 -39 -19 -67 -69 -59 -101 3 -13 17 -37 31 -53 14 -17 25 -35 25
-42 0 -29 42 -79 80 -94 53 -21 95 -20 147 3 40 19 73 61 73 94 0 8 7 21 17
28 9 8 22 29 30 46 20 48 -1 92 -61 127 -26 15 -44 32 -40 37 3 6 -1 18 -9 27
-9 9 -20 29 -25 43 -9 24 -15 26 -64 25 -47 -1 -54 -4 -65 -27 -7 -15 -20 -32
-28 -39 -8 -7 -3 8 11 34 31 55 38 60 64 46 14 -7 26 -8 39 0 17 8 23 6 38
-16 10 -14 28 -37 41 -52 20 -24 19 -22 -3 12 -14 21 -25 43 -25 47 0 17 -41
31 -55 19 -10 -8 -19 -8 -34 -1 -25 14 -25 14 -42 -6z m17 -142 c-17 -18 -46
-19 -46 -1 0 9 52 30 59 24 2 -2 -4 -13 -13 -23z m134 -1 c0 -17 -29 -18 -44
-1 -24 26 -20 31 14 20 17 -6 30 -15 30 -19z m-66 -9 c16 -18 16 -21 1 -50 -8
-17 -20 -31 -25 -31 -5 0 -17 14 -25 31 -15 29 -15 32 1 50 9 10 20 19 24 19
4 0 15 -9 24 -19z m-79 -36 c63 -62 -6 -161 -90 -129 -8 4 -23 20 -31 36 -42
81 58 157 121 93z m220 0 c50 -49 15 -135 -55 -135 -35 0 -80 41 -80 72 0 75
85 114 135 63z m-135 -110 l24 -26 -27 -27 -27 -27 -27 27 -27 27 24 26 c13
14 26 25 30 25 4 0 17 -11 30 -25z m-140 -44 c0 -6 -4 -13 -10 -16 -5 -3 -10
1 -10 9 0 9 5 16 10 16 6 0 10 -4 10 -9z m240 -7 c0 -8 -4 -12 -10 -9 -5 3
-10 10 -10 16 0 5 5 9 10 9 6 0 10 -7 10 -16z m-170 -19 c23 -24 23 -25 5 -45
-23 -25 -26 -25 -59 1 l-27 21 22 24 c28 30 30 30 59 -1z m139 1 l22 -24 -27
-21 c-33 -26 -36 -26 -59 -1 -18 20 -18 21 5 45 29 31 31 31 59 1z m-81 -64
c2 -7 -6 -12 -17 -12 -21 0 -27 11 -14 24 9 9 26 2 31 -12z"/>
<path d="M300 410 c0 -5 5 -10 10 -10 6 0 10 5 10 10 0 6 -4 10 -10 10 -5 0
-10 -4 -10 -10z"/>
<path d="M174 366 c-10 -26 4 -48 28 -44 33 4 33 52 0 56 -13 2 -25 -3 -28
-12z"/>
<path d="M394 366 c-10 -26 4 -48 28 -44 33 4 33 52 0 56 -13 2 -25 -3 -28
-12z"/>
<path d="M300 270 c0 -5 5 -10 10 -10 6 0 10 5 10 10 0 6 -4 10 -10 10 -5 0
-10 -4 -10 -10z"/>
<path d="M230 200 c0 -5 5 -10 10 -10 6 0 10 5 10 10 0 6 -4 10 -10 10 -5 0
-10 -4 -10 -10z"/>
<path d="M370 200 c0 -5 5 -10 10 -10 6 0 10 5 10 10 0 6 -4 10 -10 10 -5 0
-10 -4 -10 -10z"/>
<path d="M138 493 c-19 -5 -24 -18 -9 -27 5 -3 20 3 32 14 24 19 16 24 -23 13z"/>
<path d="M175 470 c-3 -5 -1 -10 4 -10 6 0 11 5 11 10 0 6 -2 10 -4 10 -3 0
-8 -4 -11 -10z"/>
</g>
</svg>
